{
  "accessors": [
    {
      "bufferView": 1,
      "componentType": 5126,
      "count": 1824,
      "max": [
        8.6519308090209961,
        8.0982799530029297,
        19.897550582885742
      ],
      "min": [
        -6.8450493812561035,
        -7.554868221282959,
        4.5467076301574707
      ],
      "type": "VEC3"
    },
    {
      "bufferView": 1,
      "byteOffset": 21888,
      "componentType": 5126,
      "count": 1824,
      "max": [
        1,
        1,
        1
      ],
      "min": [
        -0.99999934434890747,
        -1,
        -0.99993127584457397
      ],
      "type": "VEC3"
    },
    {
      "bufferView": 0,
      "componentType": 5125,
      "count": 10752,
      "max": [
        1823
      ],
      "min": [
        0
      ],
      "type": "SCALAR"
    },
    {
      "bufferView": 1,
      "byteOffset": 43776,
      "componentType": 5126,
      "count": 190,
      "max": [
        2.1746265888214111,
        4.0812063217163086,
        12.467212677001953
      ],
      "min": [
        -2.9330925941467285,
        -3.7970457077026367,
        -0.11939749121665955
      ],
      "type": "VEC3"
    },
    {
      "bufferView": 1,
      "byteOffset": 46056,
      "componentType": 5126,
      "count": 190,
      "max": [
        0.99797296524047852,
        0.99743008613586426,
        0.97897320985794067
      ],
      "min": [
        -0.99967837333679199,
        -0.99953985214233398,
        -0.9621654748916626
      ],
      "type": "VEC3"
    },
    {
      "bufferView": 0,
      "byteOffset": 43008,
      "componentType": 5125,
      "count": 1113,
      "max": [
        189
      ],
      "min": [
        0
      ],
      "type": "SCALAR"
    }
  ],
  "asset": {
    "extras": {
      "author": "chihabgoku (https://sketchfab.com/chihabgoku)",
      "license": "CC-BY-4.0 (http://creativecommons.org/licenses/by/4.0/)",
      "source": "https://sketchfab.com/3d-models/tree-d336c4c9a6d04eba8c7685c037d820b1",
      "title": "Tree"
    },
    "generator": "Sketchfab-8.6.0",
    "version": "2.0"
  },
  "bufferViews": [
    {
      "buffer": 0,
      "byteLength": 47460,
      "byteOffset": 0,
      "name": "floatBufferViews",
      "target": 34963
    },
    {
      "buffer": 0,
      "byteLength": 48336,
      "byteOffset": 47460,
      "byteStride": 12,
      "name": "floatBufferViews",
      "target": 34962
    }
  ],
  "buffers": [
    {
      "byteLength": 95796,
      "uri": "scene.bin"
    }
  ],
  "materials": [
    {
      "doubleSided": true,
      "emissiveFactor": [
        0,
        0,
        0
      ],
      "name": "leaves",
      "pbrMetallicRoughness": {
        "baseColorFactor": [
          0,
          0.60392199999999996,
          0.027451,
          1
        ],
        "metallicFactor": 0,
        "roughnessFactor": 1
      }
    },
    {
      "doubleSided": true,
      "emissiveFactor": [
        0,
        0,
        0
      ],
      "name": "trunk",
      "pbrMetallicRoughness": {
        "baseColorFactor": [
          0.567164,
          0.164661,
          0,
          1
        ],
        "metallicFactor": 0,
        "roughnessFactor": 1
      }
    }
  ],
  "meshes": [
    {
      "primitives": [
        {
          "attributes": {
            "NORMAL": 1,
            "POSITION": 0
          },
          "indices": 2,
          "material": 0,
          "mode": 4
        }
      ]
    },
    {
      "primitives": [
        {
          "attributes": {
            "NORMAL": 4,
            "POSITION": 3
          },
          "indices": 5,
          "material": 1,
          "mode": 4
        }
      ]
    }
  ],
  "nodes": [
    {
      "children": [
        1
      ],
      "name": "RootNode (gltf orientation matrix)",
      "rotation": [
        -0.70710678118654746,
        -0,
        -0,
        0.70710678118654757
      ]
    },
    {
      "children": [
        2
      ],
      "name": "RootNode (model correction matrix)"
    },
    {
      "children": [
        3,
        4
      ],
      "name": "tree2.obj.cleaner.materialmerger.gles"
    },
    {
      "mesh": 0,
      "name": ""
    },
    {
      "mesh": 1,
      "name": ""
    }
  ],
  "scene": 0,
  "scenes": [
    {
      "name": "OSG_Scene",
      "nodes": [
        0
      ]
    }
  ]
}

